HIERARCHY
ROOT Hips
{
	OFFSET 0.00000 0.00000 0.00000
	CHANNELS 6 Xposition Yposition Zposition Zrotation Yrotation Xrotation 
	JOINT LHipJoint
	{
		OFFSET 0 0 0
		CHANNELS 3 Zrotation Yrotation Xrotation
		JOINT LeftUpLeg
		{
			OFFSET 1.58895 -1.83665 0.71753
			CHANNELS 3 Zrotation Yrotation Xrotation
			JOINT LeftLeg
			{
				OFFSET 2.50528 -6.88321 0.00000
				CHANNELS 3 Zrotation Yrotation Xrotation
				JOINT LeftFoot
				{
					OFFSET 2.63244 -7.23257 0.00000
					CHANNELS 3 Zrotation Yrotation Xrotation
					JOINT LeftToeBase
					{
						OFFSET 0.23691 -0.65090 1.72750
						CHANNELS 3 Zrotation Yrotation Xrotation
						End Site
						{
							OFFSET 0.00000 -0.00000 0.92561
						}
					}
				}
			}
		}
	}
	JOINT RHipJoint
	{
		OFFSET 0 0 0
		CHANNELS 3 Zrotation Yrotation Xrotation
		JOINT RightUpLeg
		{
			OFFSET -1.51435 -1.83665 0.71753
			CHANNELS 3 Zrotation Yrotation Xrotation
			JOINT RightLeg
			{
				OFFSET -2.54551 -6.99375 0.00000
				CHANNELS 3 Zrotation Yrotation Xrotation
				JOINT RightFoot
				{
					OFFSET -2.66027 -7.30903 0.00000
					CHANNELS 3 Zrotation Yrotation Xrotation
					JOINT RightToeBase
					{
						OFFSET -0.22981 -0.63138 2.03959
						CHANNELS 3 Zrotation Yrotation Xrotation
						End Site
						{
							OFFSET -0.00000 -0.00000 1.07060
						}
					}
				}
			}
		}
	}
	JOINT LowerBack
	{
		OFFSET 0 0 0
		CHANNELS 3 Zrotation Yrotation Xrotation
		JOINT Spine
		{
			OFFSET -0.02651 1.86275 -0.11152
			CHANNELS 3 Zrotation Yrotation Xrotation
			JOINT Spine1
			{
				OFFSET 0.01019 1.86224 0.04087
				CHANNELS 3 Zrotation Yrotation Xrotation
				JOINT Neck
				{
					OFFSET 0 0 0
					CHANNELS 3 Zrotation Yrotation Xrotation
					JOINT Neck1
					{
						OFFSET -0.01926 1.80512 0.08867
						CHANNELS 3 Zrotation Yrotation Xrotation
						JOINT Head
						{
							OFFSET 0.05516 1.76451 -0.38475
							CHANNELS 3 Zrotation Yrotation Xrotation
							End Site
							{
								OFFSET 0.01592 1.82587 -0.14001
							}
						}
					}
				}
				JOINT LeftShoulder
				{
					OFFSET 0 0 0
					CHANNELS 3 Zrotation Yrotation Xrotation
					JOINT LeftArm
					{
						OFFSET 3.47116 1.51376 0.14491
						CHANNELS 3 Zrotation Yrotation Xrotation
						JOINT LeftForeArm
						{
							OFFSET 4.78095 -0.00000 0.00000
							CHANNELS 3 Zrotation Yrotation Xrotation
							JOINT LeftHand
							{
								OFFSET 3.58615 -0.00000 -0.00000
								CHANNELS 3 Zrotation Yrotation Xrotation
								JOINT LeftFingerBase
								{
									OFFSET 0 0 0
									CHANNELS 3 Zrotation Yrotation Xrotation
									JOINT LeftHandIndex1
									{
										OFFSET 0.65981 -0.00000 0.00000
										CHANNELS 3 Zrotation Yrotation Xrotation
										End Site
										{
											OFFSET 0.53196 -0.00000 0.00000
										}
									}
								}
								JOINT LThumb
								{
									OFFSET 0 0 0
									CHANNELS 3 Zrotation Yrotation Xrotation
									End Site
									{
										OFFSET 0.54008 -0.00000 0.54008
									}
								}
							}
						}
					}
				}
				JOINT RightShoulder
				{
					OFFSET 0 0 0
					CHANNELS 3 Zrotation Yrotation Xrotation
					JOINT RightArm
					{
						OFFSET -3.31725 1.61216 0.35156
						CHANNELS 3 Zrotation Yrotation Xrotation
						JOINT RightForeArm
						{
							OFFSET -4.48913 -0.00000 0.00000
							CHANNELS 3 Zrotation Yrotation Xrotation
							JOINT RightHand
							{
								OFFSET -3.70510 -0.00000 0.00000
								CHANNELS 3 Zrotation Yrotation Xrotation
								JOINT RightFingerBase
								{
									OFFSET 0 0 0
									CHANNELS 3 Zrotation Yrotation Xrotation
									JOINT RightHandIndex1
									{
										OFFSET -0.44914 -0.00000 0.00000
										CHANNELS 3 Zrotation Yrotation Xrotation
										End Site
										{
											OFFSET -0.36211 -0.00000 0.00000
										}
									}
								}
								JOINT RThumb
								{
									OFFSET 0 0 0
									CHANNELS 3 Zrotation Yrotation Xrotation
									End Site
									{
										OFFSET -0.36763 -0.00000 0.36763
									}
								}
							}
						}
					}
				}
			}
		}
	}
}
MOTION
Frames: 6
Frame Time: .0083333
-0.6746 18.6765 5.8198 0 0 0 0 0 0 -21 0 0 0 0 0 0 0 0 0 0 0 0 0 0 21 0 0 0 0 0 0 0 0 0 0 0 0 0 0 0 0 0 0 0 0 0 0 -16 0 0 21 0 0 11 0 0 0 -8 0 0 0 0 0 0 0 0 0 0 0 0 0 0 0 0 0 0 0 0 8 0 0 0 0 0 0 0 0 0 0 0 0 0 0 0 0 0
-0.6746 18.6765 5.8198 0.2386 -2.6372 2.4805 0.0000 0.0000 0.0000 -14.9067 -8.6431 -0.2692 1.0269 6.4461 18.0845 1.5351 6.9699 -26.8294 8.2511 -16.3009 -53.4621 0.0000 0.0000 0.0000 0.0000 0.0000 0.0000 0.0000 0.0000 0.0000 -0.0000 -0.0000 0.0000 -0.0000 -0.0000 0.0000 -2.2084 0.9314 2.3178 0.4321 1.1610 -3.3731 1.6087 0.6654 -4.8379 -1.6865 -2.9088 -15.0963 3.9652 -4.5447 20.3157 1.0769 -1.8376 8.9939 0.0000 0.0000 0.0000 -88.8957 12.5531 27.2715 17.6564 -27.7149 -4.3883 -0.0000 -0.0000 13.4160 -0.5632 -24.8559 0.2367 -7.1250 0.0000 -0.0000 -18.2185 6.1224 17.0801 0.0000 0.0000 0.0000 87.7612 -20.9705 27.4566 -23.3019 34.4173 -7.3082 0.0000 0.0000 21.6796 -5.4563 -37.6231 3.3372 7.1250 -0.0000 -0.0000 36.3052 -64.1079 -17.9386
-0.6721 18.6756 5.8252 0.1781 -2.6116 2.4477 0.0000 0.0000 0.0000 -14.8592 -8.6704 -0.2038 1.0279 6.4490 18.0930 1.5376 6.9766 -26.8516 8.2414 -16.2940 -53.4278 0.0000 0.0000 0.0000 0.0000 0.0000 0.0000 0.0000 0.0000 0.0000 -0.0000 -0.0000 0.0000 -0.0000 -0.0000 0.0000 -2.1275 0.9358 2.2102 0.4548 1.1741 -3.3494 1.5879 0.6684 -4.7511 -1.6771 -2.9045 -15.0881 3.9239 -4.5416 20.5297 1.0618 -1.8369 9.0647 0.0000 -0.0000 0.0000 -88.8672 12.4574 27.8540 17.7711 -27.8630 -4.4417 -0.0000 -0.0000 13.1996 -0.8178 -24.8261 0.3434 -7.1250 0.0000 -0.0000 -18.3688 6.1646 17.2219 0.0000 -0.0000 0.0000 87.7126 -20.9261 27.3396 -23.3420 34.4607 -7.3309 0.0000 0.0000 21.7685 -5.0225 -37.9656 3.0947 7.1250 -0.0000 -0.0000 37.1913 -64.2583 -18.5647
-0.6694 18.6746 5.8298 0.1532 -2.5593 2.4216 0.0000 0.0000 0.0000 -14.8360 -8.6579 -0.1632 1.0258 6.4428 18.0746 1.5326 6.9370 -26.7907 8.2410 -16.2937 -53.4262 0.0000 0.0000 0.0000 0.0000 0.0000 0.0000 0.0000 0.0000 0.0000 -0.0000 -0.0000 0.0000 -0.0000 -0.0000 0.0000 -2.0898 0.9174 2.1032 0.4839 1.1549 -3.3090 1.6001 0.6567 -4.6468 -1.6492 -2.9008 -15.0585 3.8159 -4.5214 20.5954 1.0233 -1.8365 9.0777 -0.0000 -0.0000 0.0000 -88.8910 12.3796 28.3781 17.9508 -28.0941 -4.5260 -0.0000 -0.0000 12.9215 -0.8701 -24.9458 0.3670 -7.1250 0.0000 -0.0000 -18.3949 6.0538 17.2904 -0.0000 -0.0000 0.0000 87.5893 -20.8953 27.4095 -23.4582 34.5861 -7.3968 0.0000 0.0000 21.6872 -4.9530 -37.9836 3.0530 7.1250 -0.0000 -0.0000 37.2849 -64.2533 -18.6135
-0.6673 18.6734 5.8341 0.1663 -2.5035 2.3450 0.0000 0.0000 0.0000 -14.8496 -8.5539 -0.1004 1.0234 6.4356 18.0536 1.5280 6.8411 -26.6982 8.2415 -16.2941 -53.4281 0.0000 0.0000 0.0000 0.0000 0.0000 0.0000 0.0000 0.0000 0.0000 -0.0000 -0.0000 0.0000 -0.0000 -0.0000 0.0000 -2.0835 0.8881 2.0525 0.4835 1.1175 -3.2526 1.5998 0.6365 -4.5572 -1.6487 -2.8788 -14.9209 3.8051 -4.4834 20.4694 1.0259 -1.8236 9.0074 -0.0000 -0.0000 0.0000 -88.8582 12.3878 28.9895 18.2298 -28.4504 -4.6582 -0.0000 -0.0000 12.3778 -0.7182 -25.1400 0.3051 -7.1250 0.0000 -0.0000 -18.2990 5.8611 17.2608 -0.0000 -0.0000 0.0000 87.4781 -20.8464 27.5547 -23.5931 34.7310 -7.4734 0.0000 0.0000 21.5122 -5.1332 -37.7136 3.1453 7.1250 -0.0000 -0.0000 36.7484 -64.0911 -18.1726
-0.6654 18.6718 5.8378 0.2331 -2.4868 2.2447 0.0000 0.0000 0.0000 -14.9530 -8.5501 0.0354 1.0208 6.4274 18.0297 1.5321 6.8384 -26.7256 8.2309 -16.2865 -53.3903 0.0000 0.0000 0.0000 0.0000 0.0000 0.0000 0.0000 0.0000 0.0000 -0.0000 -0.0000 0.0000 -0.0000 -0.0000 0.0000 -2.1282 0.8725 2.0516 0.4502 1.0937 -3.1978 1.5923 0.6244 -4.4988 -1.6901 -2.8563 -14.7018 3.9156 -4.4567 20.2030 1.0763 -1.8092 8.8786 0.0000 0.0000 0.0000 -88.7433 12.5055 29.7704 18.6315 -28.9582 -4.8511 -0.0000 -0.0000 11.5882 -0.5496 -25.2444 0.2344 -7.1250 0.0000 -0.0000 -18.1969 5.7525 17.1931 0.0000 0.0000 0.0000 87.4157 -20.8222 27.6727 -23.7547 34.9038 -7.5657 0.0000 0.0000 21.2683 -5.4101 -37.2738 3.2826 7.1250 -0.0000 -0.0000 35.9030 -63.8187 -17.4744
